<?xml version="1.0" encoding="UTF-8" standalone="no"?>
<!DOCTYPE svg PUBLIC "-//W3C//DTD SVG 1.1//EN" "http://www.w3.org/Graphics/SVG/1.1/DTD/svg11.dtd">
<svg width="100%" height="100%" viewBox="0 0 1080 1080" version="1.1" xmlns="http://www.w3.org/2000/svg" xmlns:xlink="http://www.w3.org/1999/xlink" xml:space="preserve" xmlns:serif="http://www.serif.com/" style="fill-rule:evenodd;clip-rule:evenodd;stroke-linejoin:round;stroke-miterlimit:2;">
    <g id="Greyscale">
        <g id="Backdrop" transform="matrix(2.21705,0,0,2.21705,-400.186,-823.814)">
            <circle cx="424.07" cy="615.147" r="243.566"/>
        </g>
        <g transform="matrix(1.12351,0,0,1.07771,5.84109,-14.7902)">
            <g id="Onion2">
                <g>
                    <g transform="matrix(1.06396,0,0,1.06396,-86.3682,-90.5487)">
                        <path d="M556.468,129.12C313.561,129.12 116.645,326.036 116.645,568.943C116.645,811.85 313.561,1008.76 556.468,1008.76L556.468,129.12Z" style="fill:url(#_Linear1);"/>
                        <path d="M556.468,129.12C313.561,129.12 116.645,326.036 116.645,568.943C116.645,811.85 313.561,1008.76 556.468,1008.76L556.468,129.12ZM543.203,137.461C541.927,138.287 540.435,138.787 538.829,138.852C535.885,138.97 532.948,139.118 530.019,139.295C528.415,139.392 526.883,139.044 525.537,138.351C524.293,139.227 522.821,139.788 521.219,139.917C518.282,140.155 515.353,140.422 512.433,140.718C510.834,140.88 509.291,140.594 507.92,139.957C506.711,140.882 505.261,141.503 503.665,141.698C500.74,142.055 497.824,142.441 494.917,142.856C493.325,143.084 491.773,142.862 490.379,142.28C489.205,143.255 487.78,143.934 486.193,144.194C483.284,144.671 480.385,145.177 477.496,145.712C475.915,146.004 474.355,145.846 472.941,145.323C471.804,146.345 470.406,147.083 468.83,147.408C465.943,148.004 463.065,148.629 460.199,149.283C458.63,149.641 457.066,149.547 455.633,149.083C454.537,150.151 453.168,150.945 451.606,151.336C448.743,152.051 445.892,152.795 443.053,153.567C441.499,153.989 439.933,153.961 438.483,153.556C437.428,154.669 436.091,155.52 434.546,155.975C431.714,156.808 428.894,157.669 426.087,158.559C424.55,159.046 422.984,159.082 421.52,158.739C420.509,159.895 419.206,160.8 417.679,161.319C414.881,162.27 412.097,163.248 409.326,164.254C407.809,164.805 406.246,164.907 404.77,164.624C403.804,165.822 402.537,166.781 401.031,167.363C398.273,168.429 395.528,169.524 392.798,170.645C391.303,171.258 389.745,171.426 388.26,171.205C387.341,172.442 386.112,173.454 384.629,174.098C381.915,175.279 379.215,176.487 376.53,177.722C375.061,178.398 373.511,178.63 372.018,178.473C371.148,179.746 369.959,180.809 368.503,181.515C365.837,182.809 363.186,184.129 360.55,185.476C359.108,186.213 357.568,186.51 356.071,186.415C355.251,187.725 354.104,188.836 352.676,189.604C350.062,191.008 347.465,192.439 344.883,193.896C343.471,194.693 341.944,195.055 340.445,195.023C339.676,196.366 338.573,197.525 337.177,198.352C334.62,199.865 332.08,201.404 329.558,202.969C328.177,203.825 326.666,204.251 325.166,204.283C324.451,205.657 323.394,206.861 322.03,207.747C319.535,209.367 317.058,211.012 314.598,212.682C313.253,213.595 311.759,214.085 310.262,214.181C309.601,215.584 308.591,216.832 307.264,217.774C304.834,219.498 302.423,221.247 300.031,223.02C298.723,223.99 297.249,224.543 295.757,224.702C295.151,226.132 294.192,227.422 292.902,228.42C290.543,230.246 288.202,232.096 285.882,233.969C284.612,234.994 283.162,235.609 281.678,235.831C281.129,237.286 280.221,238.615 278.972,239.667C276.686,241.592 274.421,243.541 272.176,245.512C270.948,246.59 269.524,247.266 268.049,247.552C267.558,249.029 266.703,250.396 265.497,251.5C263.289,253.521 261.103,255.565 258.938,257.631C257.754,258.761 256.358,259.498 254.896,259.847C254.463,261.344 253.663,262.747 252.502,263.902C250.377,266.016 248.274,268.152 246.193,270.309C245.055,271.489 243.689,272.286 242.243,272.698C241.87,274.212 241.127,275.648 240.013,276.852C237.974,279.056 235.958,281.281 233.965,283.527C232.875,284.756 231.543,285.611 230.115,286.085C229.803,287.614 229.118,289.08 228.053,290.332C226.105,292.622 224.18,294.933 222.28,297.264C221.24,298.538 219.943,299.451 218.536,299.987C218.286,301.528 217.66,303.023 216.647,304.32C214.793,306.693 212.964,309.086 211.159,311.499C210.172,312.818 208.914,313.786 207.529,314.384C207.342,315.934 206.778,317.455 205.818,318.796C204.063,321.248 202.332,323.719 200.627,326.209C199.696,327.57 198.478,328.593 197.119,329.252C196.995,330.809 196.493,332.353 195.59,333.735C193.936,336.262 192.309,338.807 190.708,341.37C189.832,342.772 188.658,343.848 187.327,344.566C187.267,346.127 186.83,347.692 185.984,349.113C184.436,351.711 182.915,354.326 181.421,356.959C180.605,358.398 179.476,359.526 178.176,360.303C178.181,361.865 177.809,363.449 177.022,364.905C175.584,367.57 174.173,370.251 172.79,372.948C172.034,374.423 170.953,375.601 169.687,376.435C169.757,377.995 169.451,379.594 168.726,381.085C167.4,383.811 166.102,386.553 164.833,389.311C164.139,390.817 163.109,392.043 161.879,392.935C162.014,394.49 161.775,396.101 161.114,397.623C159.904,400.406 158.722,403.205 157.57,406.018C156.941,407.555 155.963,408.826 154.772,409.773C154.972,411.32 154.801,412.94 154.204,414.491C153.113,417.326 152.051,420.176 151.019,423.039C150.455,424.603 149.532,425.919 148.382,426.919C148.648,428.455 148.546,430.081 148.015,431.658C147.045,434.54 146.105,437.435 145.195,440.343C144.698,441.932 143.831,443.288 142.726,444.34C143.056,445.863 143.023,447.492 142.56,449.091C141.713,452.014 140.897,454.95 140.111,457.898C139.682,459.508 138.875,460.903 137.815,462.005C138.209,463.511 138.246,465.14 137.851,466.759C137.13,469.718 136.44,472.688 135.781,475.67C135.421,477.298 134.674,478.729 133.662,479.88C134.12,481.366 134.226,482.991 133.901,484.627C133.307,487.615 132.744,490.615 132.212,493.625C131.922,495.268 131.236,496.732 130.275,497.929C130.796,499.392 130.971,501.011 130.716,502.66C130.25,505.673 129.815,508.695 129.412,511.728C129.192,513.383 128.57,514.877 127.66,516.117C128.243,517.555 128.486,519.165 128.302,520.824C127.964,523.855 127.658,526.895 127.384,529.944C127.235,531.608 126.676,533.13 125.82,534.41C126.463,535.819 126.775,537.416 126.661,539.083C126.452,542.126 126.275,545.177 126.13,548.237C126.051,549.906 125.557,551.453 124.755,552.771C125.458,554.151 125.836,555.732 125.792,557.402C125.712,560.451 125.664,563.509 125.647,566.573C125.638,568.245 125.209,569.813 124.463,571.167C125.223,572.512 125.667,574.075 125.693,575.747C125.741,578.811 125.82,581.867 125.932,584.915C125.993,586.585 125.63,588.17 124.942,589.556C125.757,590.866 126.266,592.406 126.362,594.075C126.539,597.133 126.747,600.182 126.986,603.223C127.118,604.888 126.822,606.488 126.193,607.905C127.063,609.175 127.637,610.691 127.804,612.353C128.109,615.398 128.446,618.435 128.814,621.461C129.016,623.119 128.789,624.73 128.221,626.175C129.143,627.405 129.781,628.892 130.018,630.544C130.452,633.572 130.918,636.59 131.415,639.597C131.687,641.243 131.529,642.864 131.023,644.333C131.997,645.518 132.697,646.975 133.004,648.614C133.567,651.618 134.161,654.611 134.786,657.593C135.128,659.225 135.039,660.852 134.596,662.343C135.619,663.482 136.381,664.904 136.758,666.528C137.448,669.502 138.169,672.465 138.92,675.415C139.331,677.03 139.312,678.659 138.933,680.169C140.004,681.26 140.826,682.646 141.271,684.25C142.087,687.189 142.933,690.116 143.81,693.029C144.289,694.623 144.339,696.252 144.025,697.778C145.141,698.819 146.021,700.165 146.535,701.748C147.474,704.646 148.444,707.53 149.444,710.401C149.991,711.972 150.109,713.597 149.86,715.136C151.019,716.124 151.956,717.428 152.536,718.986C153.598,721.838 154.689,724.676 155.809,727.499C156.422,729.043 156.609,730.661 156.425,732.21C157.625,733.144 158.615,734.405 159.261,735.934C160.442,738.735 161.651,741.52 162.89,744.29C163.567,745.805 163.822,747.413 163.703,748.969C164.941,749.848 165.984,751.062 166.693,752.561C167.99,755.305 169.315,758.033 170.669,760.744C171.409,762.227 171.731,763.823 171.677,765.383C172.951,766.204 174.043,767.37 174.814,768.836C176.225,771.518 177.662,774.184 179.127,776.832C179.928,778.28 180.317,779.86 180.328,781.421C181.635,782.185 182.775,783.301 183.606,784.73C185.126,787.347 186.673,789.946 188.246,792.527C189.107,793.938 189.56,795.499 189.635,797.058C190.972,797.762 192.158,798.826 193.047,800.218C194.674,802.764 196.326,805.292 198.005,807.801C198.922,809.173 199.439,810.712 199.578,812.267C200.944,812.911 202.172,813.922 203.117,815.273C204.846,817.744 206.601,820.197 208.38,822.63C209.353,823.96 209.932,825.476 210.135,827.023C211.525,827.606 212.793,828.562 213.793,829.87C215.621,832.263 217.474,834.636 219.351,836.99C220.377,838.276 221.016,839.764 221.281,841.303C222.695,841.824 224,842.723 225.052,843.987C226.975,846.297 228.922,848.588 230.893,850.857C231.97,852.098 232.669,853.558 232.995,855.083C234.428,855.541 235.769,856.383 236.871,857.6C238.885,859.825 240.923,862.029 242.983,864.211C244.109,865.404 244.866,866.832 245.253,868.342C246.703,868.739 248.077,869.521 249.226,870.689C251.327,872.825 253.451,874.939 255.596,877.031C256.769,878.174 257.582,879.568 258.029,881.06C259.494,881.394 260.898,882.117 262.092,883.234C264.277,885.277 266.483,887.298 268.709,889.296C269.926,890.388 270.794,891.746 271.299,893.218C272.776,893.488 274.207,894.15 275.445,895.216C277.709,897.163 279.993,899.088 282.297,900.99C283.556,902.028 284.476,903.349 285.039,904.797C286.526,905.004 287.982,905.604 289.261,906.616C291.599,908.466 293.957,910.292 296.334,912.093C297.633,913.078 298.604,914.358 299.224,915.782C300.718,915.925 302.196,916.463 303.514,917.419C305.922,919.168 308.35,920.892 310.796,922.591C312.132,923.519 313.153,924.757 313.828,926.154C315.326,926.234 316.824,926.708 318.178,927.608C320.653,929.253 323.146,930.873 325.656,932.467C327.028,933.338 328.097,934.532 328.825,935.899C330.324,935.915 331.84,936.326 333.228,937.168C335.765,938.706 338.319,940.219 340.89,941.707C342.294,942.519 343.408,943.667 344.189,945.002C345.689,944.955 347.219,945.301 348.639,946.084C351.233,947.514 353.844,948.919 356.471,950.297C357.906,951.049 359.063,952.149 359.895,953.45C361.392,953.34 362.934,953.621 364.383,954.344C367.031,955.664 369.694,956.957 372.373,958.224C373.835,958.915 375.034,959.965 375.916,961.231C377.407,961.058 378.96,961.274 380.435,961.935C383.132,963.143 385.843,964.323 388.568,965.477C390.056,966.107 391.295,967.106 392.225,968.333C393.709,968.098 395.268,968.249 396.768,968.848C399.509,969.941 402.263,971.007 405.031,972.046C406.542,972.613 407.819,973.559 408.796,974.747C410.269,974.45 411.833,974.536 413.355,975.071C416.135,976.049 418.929,976.999 421.735,977.922C423.266,978.425 424.578,979.317 425.6,980.463C427.061,980.105 428.627,980.126 430.168,980.597C432.984,981.458 435.812,982.291 438.651,983.096C440.202,983.536 441.547,984.373 442.611,985.475C444.056,985.056 445.622,985.012 447.181,985.419C450.027,986.162 452.885,986.877 455.753,987.564C457.319,987.938 458.695,988.719 459.801,989.776C461.23,989.298 462.793,989.188 464.365,989.531C467.238,990.156 470.12,990.752 473.014,991.319C474.592,991.629 475.997,992.352 477.143,993.363C478.552,992.826 480.11,992.652 481.694,992.929C484.588,993.435 487.491,993.912 490.404,994.359C491.994,994.604 493.425,995.268 494.608,996.232C495.997,995.637 497.547,995.399 499.14,995.611C502.051,995.997 504.97,996.355 507.898,996.683C509.496,996.862 510.952,997.468 512.17,998.382C513.535,997.731 515.075,997.43 516.676,997.576C519.598,997.844 522.529,998.082 525.469,998.291C527.072,998.404 528.549,998.951 529.801,999.815C531.141,999.108 532.669,998.745 534.274,998.826C537.204,998.975 540.142,999.094 543.088,999.184C544.695,999.233 546.191,999.719 547.474,1000.53C547.777,1000.36 548.091,1000.2 548.415,1000.06L548.559,999.766L548.68,999.546C547.911,998.167 547.472,996.565 547.472,994.857L547.472,985.48C547.472,983.772 547.911,982.17 548.68,980.791C547.911,979.412 547.472,977.811 547.472,976.103L547.472,966.725C547.472,965.018 547.911,963.416 548.68,962.037C547.911,960.658 547.472,959.056 547.472,957.348L547.472,947.971C547.472,946.263 547.911,944.661 548.68,943.282C547.911,941.903 547.472,940.301 547.472,938.594L547.472,929.216C547.472,927.508 547.911,925.907 548.68,924.528C547.911,923.149 547.472,921.547 547.472,919.839L547.472,910.462C547.472,908.754 547.911,907.152 548.68,905.773C547.911,904.394 547.472,902.793 547.472,901.085L547.472,891.707C547.472,889.999 547.911,888.397 548.68,887.018C547.911,885.64 547.472,884.038 547.472,882.33L547.472,872.952C547.472,871.244 547.911,869.643 548.68,868.264C547.911,866.885 547.472,865.283 547.472,863.575L547.472,854.197C547.472,852.49 547.911,850.888 548.681,849.509C547.911,848.13 547.472,846.528 547.472,844.82L547.472,835.443C547.472,833.735 547.911,832.133 548.681,830.754C547.911,829.375 547.472,827.773 547.472,826.065L547.472,816.688C547.472,814.98 547.911,813.378 548.681,811.999C547.911,810.62 547.472,809.018 547.472,807.31L547.472,797.933C547.472,796.225 547.911,794.623 548.68,793.244C547.911,791.865 547.472,790.264 547.472,788.556L547.472,779.178C547.472,777.47 547.911,775.868 548.681,774.489C547.911,773.11 547.472,771.508 547.472,769.801L547.472,760.423C547.472,758.715 547.911,757.114 548.68,755.735C547.911,754.356 547.472,752.754 547.472,751.046L547.472,741.668C547.472,739.961 547.911,738.359 548.681,736.98C547.911,735.601 547.472,733.999 547.472,732.291L547.472,722.914C547.472,721.206 547.911,719.604 548.68,718.225C547.911,716.846 547.472,715.244 547.472,713.536L547.472,704.159C547.472,702.451 547.911,700.849 548.68,699.47C547.911,698.091 547.472,696.49 547.472,694.782L547.472,685.404C547.472,683.696 547.911,682.094 548.68,680.716C547.911,679.337 547.472,677.735 547.472,676.027L547.472,666.65C547.472,664.942 547.911,663.34 548.68,661.961C547.911,660.582 547.472,658.98 547.472,657.272L547.472,647.895C547.472,646.187 547.911,644.585 548.68,643.206C547.911,641.827 547.472,640.226 547.472,638.518L547.472,629.14C547.472,627.433 547.911,625.831 548.68,624.452C547.911,623.073 547.472,621.471 547.472,619.763L547.472,610.386C547.472,608.678 547.911,607.076 548.68,605.697C547.911,604.318 547.472,602.716 547.472,601.009L547.472,591.631C547.472,589.923 547.911,588.321 548.68,586.943C547.911,585.564 547.472,583.962 547.472,582.254L547.472,572.877C547.472,571.169 547.911,569.567 548.68,568.188C547.911,566.809 547.472,565.207 547.472,563.499L547.472,554.122C547.472,552.414 547.911,550.812 548.68,549.433C547.911,548.054 547.472,546.452 547.472,544.744L547.472,535.367C547.472,533.659 547.911,532.057 548.68,530.678C547.911,529.299 547.472,527.697 547.472,525.99L547.472,516.612C547.472,514.904 547.911,513.302 548.68,511.923C547.911,510.545 547.472,508.943 547.472,507.235L547.472,497.857C547.472,496.149 547.911,494.547 548.68,493.169C547.911,491.79 547.472,490.188 547.472,488.48L547.472,479.103C547.472,477.395 547.911,475.793 548.68,474.414C547.911,473.035 547.472,471.433 547.472,469.725L547.472,460.348C547.472,458.64 547.911,457.039 548.68,455.66C547.911,454.281 547.472,452.679 547.472,450.971L547.472,441.594C547.472,439.886 547.911,438.284 548.68,436.905C547.911,435.527 547.472,433.925 547.472,432.217L547.472,422.84C547.472,421.132 547.911,419.53 548.68,418.151C547.911,416.772 547.472,415.171 547.472,413.463L547.472,404.086C547.472,402.378 547.911,400.776 548.68,399.397C547.911,398.018 547.472,396.416 547.472,394.708L547.472,385.331C547.472,383.623 547.911,382.021 548.68,380.642C547.911,379.263 547.472,377.662 547.472,375.954L547.472,366.576C547.472,364.868 547.911,363.266 548.68,361.888C547.911,360.509 547.472,358.907 547.472,357.199L547.472,347.822C547.472,346.114 547.911,344.512 548.68,343.133C547.911,341.754 547.472,340.153 547.472,338.445L547.472,329.067C547.472,327.36 547.911,325.758 548.68,324.379C547.911,323 547.472,321.398 547.472,319.69L547.472,310.313C547.472,308.605 547.911,307.003 548.68,305.624C547.911,304.245 547.472,302.643 547.472,300.935L547.472,291.558C547.472,289.85 547.911,288.248 548.68,286.869C547.911,285.491 547.472,283.889 547.472,282.181L547.472,272.804C547.472,271.096 547.911,269.494 548.68,268.115C547.911,266.736 547.472,265.134 547.472,263.426L547.472,254.049C547.472,252.341 547.911,250.739 548.68,249.36C547.911,247.982 547.472,246.38 547.472,244.672L547.472,235.294C547.472,233.587 547.911,231.985 548.68,230.606C547.911,229.227 547.472,227.625 547.472,225.917L547.472,216.54C547.472,214.832 547.911,213.23 548.68,211.851C547.911,210.472 547.472,208.87 547.472,207.162L547.472,197.785C547.472,196.077 547.911,194.475 548.68,193.096C547.911,191.717 547.472,190.115 547.472,188.408L547.472,179.03C547.472,177.322 547.911,175.72 548.68,174.342C547.911,172.963 547.472,171.361 547.472,169.653L547.472,160.276C547.472,158.568 547.911,156.966 548.68,155.587C547.911,154.208 547.472,152.606 547.472,150.898L547.472,141.521C547.472,140.494 547.631,139.506 547.926,138.582L547.646,138.586C546.039,138.618 544.522,138.208 543.203,137.461Z" style="fill:url(#_Linear2);"/>
                    </g>
                    <g transform="matrix(1.06396,0,0,1.06396,-86.3682,-90.5487)">
                        <path d="M556.468,129.12C313.561,129.12 116.645,326.036 116.645,568.943C116.645,811.85 313.561,1008.76 556.468,1008.76L556.468,890.013C379.145,890.013 235.397,746.265 235.397,568.943C235.397,391.62 379.145,247.872 556.468,247.872L556.468,129.12Z" style="fill:white;"/>
                        <path d="M556.468,129.12C313.561,129.12 116.645,326.036 116.645,568.943C116.645,811.85 313.561,1008.76 556.468,1008.76L556.468,890.013C379.145,890.013 235.397,746.265 235.397,568.943C235.397,391.62 379.145,247.872 556.468,247.872L556.468,129.12ZM536.39,150.522L536.39,227.524C357.127,237.947 215.32,387.046 215.32,568.943C215.32,750.839 357.127,899.938 536.39,910.361C536.39,910.361 536.39,987.363 536.39,987.363C314.098,976.91 136.723,793.805 136.723,568.943C136.723,344.08 314.098,160.975 536.39,150.522L536.39,150.522Z" style="fill:white;"/>
                    </g>
                    <g id="shade" transform="matrix(1.0332,0,0,1.02596,-82.7801,-68.9296)">
                        <path d="M556.468,129.12C313.561,129.12 116.645,326.036 116.645,568.943C116.645,811.85 313.561,1008.76 556.468,1008.76L556.468,969.181C335.422,969.181 156.229,789.988 156.229,568.943C156.229,347.897 335.422,168.704 556.468,168.704L556.468,129.12Z" style="fill:rgb(143,143,143);fill-opacity:0.18;"/>
                    </g>
                    <g transform="matrix(0.593604,0,0,0.539001,175.371,208.124)">
                        <path d="M556.468,129.12C313.561,129.12 116.645,326.036 116.645,568.943C116.645,811.85 313.561,1008.76 556.468,1008.76L556.468,780.057C439.872,780.057 345.353,685.538 345.353,568.943C345.353,452.347 439.872,357.828 556.468,357.828L556.468,129.12Z" style="fill:white;"/>
                        <path d="M556.468,129.12C313.561,129.12 116.645,326.036 116.645,568.943C116.645,811.85 313.561,1008.76 556.468,1008.76L556.468,780.057C439.872,780.057 345.353,685.538 345.353,568.943C345.353,452.347 439.872,357.828 556.468,357.828L556.468,129.12ZM520.481,171.999L520.481,319.164C400.152,337.073 309.367,443.433 309.367,568.943C309.367,694.452 400.152,800.812 520.481,818.722C520.481,818.722 520.481,965.886 520.481,965.886C315.34,947.993 152.632,778.588 152.632,568.943C152.632,359.297 315.34,189.892 520.481,171.999L520.481,171.999Z" style="fill:white;"/>
                    </g>
                    <g transform="matrix(0.570706,0,0,0.548272,176.73,202.849)">
                        <path d="M556.468,129.12C313.561,129.12 116.645,326.036 116.645,568.943C116.645,811.85 313.561,1008.76 556.468,1008.76L556.468,938.393C352.426,938.393 187.017,772.984 187.017,568.943C187.017,364.901 352.426,199.492 556.468,199.492L556.468,129.12Z" style="fill:rgb(111,111,111);fill-opacity:0.17;"/>
                    </g>
                    <g id="white" transform="matrix(1.07173,0,0,1.07173,-88.4159,-93.4068)">
                        <path d="M556.468,129.12C313.561,129.12 116.645,326.036 116.645,568.943C116.645,811.85 313.561,1008.76 556.468,1008.76L556.468,129.12ZM538.197,148.556L538.197,989.329C314.043,979.783 134.917,795.432 134.917,568.943C134.917,342.453 314.043,158.102 538.197,148.556L538.197,148.556Z" style="fill:url(#_Linear3);"/>
                    </g>
                </g>
            </g>
        </g>
        <g transform="matrix(0.545803,-4.16334e-16,1.94289e-16,0.77415,261.472,43.7381)">
            <rect x="575.68" y="35.68" width="49.143" height="1008.64"/>
            <path d="M624.823,35.68L575.68,35.68L575.68,1044.32L624.823,1044.32L624.823,35.68ZM603.526,50.695L603.526,1029.31C603.526,1029.31 596.976,1029.31 596.976,1029.31C596.976,1029.31 596.976,50.695 596.976,50.695L603.526,50.695Z"/>
        </g>
    </g>
    <defs>
        <linearGradient id="_Linear1" x1="0" y1="0" x2="1" y2="0" gradientUnits="userSpaceOnUse" gradientTransform="matrix(2e-06,0,0,2e-06,1198.68,491.502)"><stop offset="0" style="stop-color:black;stop-opacity:1"/><stop offset="1" style="stop-color:black;stop-opacity:0"/></linearGradient>
        <linearGradient id="_Linear2" x1="0" y1="0" x2="1" y2="0" gradientUnits="userSpaceOnUse" gradientTransform="matrix(2e-06,0,0,2e-06,1198.68,491.502)"><stop offset="0" style="stop-color:white;stop-opacity:1"/><stop offset="1" style="stop-color:white;stop-opacity:0"/></linearGradient>
        <linearGradient id="_Linear3" x1="0" y1="0" x2="1" y2="0" gradientUnits="userSpaceOnUse" gradientTransform="matrix(2e-06,0,0,2e-06,1198.68,491.502)"><stop offset="0" style="stop-color:black;stop-opacity:1"/><stop offset="1" style="stop-color:black;stop-opacity:0"/></linearGradient>
    </defs>
</svg>
