<?xml version="1.0" encoding="UTF-8" standalone="no"?>
<!DOCTYPE svg PUBLIC "-//W3C//DTD SVG 1.1//EN" "http://www.w3.org/Graphics/SVG/1.1/DTD/svg11.dtd">
<svg width="100%" height="100%" viewBox="0 0 1080 1080" version="1.1" xmlns="http://www.w3.org/2000/svg" xmlns:xlink="http://www.w3.org/1999/xlink" xml:space="preserve" xmlns:serif="http://www.serif.com/" style="fill-rule:evenodd;clip-rule:evenodd;stroke-linejoin:round;stroke-miterlimit:2;">
    <g id="Greyscale">
        <g id="Backdrop" transform="matrix(2.21705,0,0,2.21705,-400.186,-823.814)">
            <circle id="Outer" cx="424.07" cy="615.147" r="243.566"/>
        </g>
        <g id="Layers" transform="matrix(1.06848,0,0,1.06849,-2.15381,-8.06948)">
            <g id="Bottomshell">
                <g transform="matrix(0.593604,0,0,0.539001,175.371,208.124)">
                    <path d="M556.468,129.12C313.561,129.12 116.645,326.036 116.645,568.943C116.645,811.85 313.561,1008.76 556.468,1008.76L556.468,780.057C439.872,780.057 345.353,685.538 345.353,568.943C345.353,452.347 439.872,357.828 556.468,357.828L556.468,129.12Z" style="fill:white;"/>
                    <path d="M556.468,129.12C313.561,129.12 116.645,326.036 116.645,568.943C116.645,811.85 313.561,1008.76 556.468,1008.76L556.468,780.057C439.872,780.057 345.353,685.538 345.353,568.943C345.353,452.347 439.872,357.828 556.468,357.828L556.468,129.12ZM520.481,171.999L520.481,319.164C400.152,337.073 309.367,443.433 309.367,568.943C309.367,694.452 400.152,800.812 520.481,818.722L520.481,965.886C315.34,947.993 152.632,778.588 152.632,568.943C152.632,359.297 315.34,189.892 520.481,171.999Z" style="fill:white;"/>
                </g>
                <g transform="matrix(0.598734,0,0,0.548272,173.461,202.849)">
                    <path d="M556.468,129.12C313.561,129.12 116.645,326.036 116.645,568.943C116.645,811.85 313.561,1008.76 556.468,1008.76L556.468,938.393C352.426,938.393 187.017,772.984 187.017,568.943C187.017,364.901 352.426,199.492 556.468,199.492L556.468,129.12Z" style="fill:rgb(111,111,111);fill-opacity:0.17;"/>
                </g>
            </g>
            <g id="Topshel">
                <g transform="matrix(1.06396,0,0,1.06396,-86.3682,-90.5487)">
                    <path d="M556.468,129.12C313.561,129.12 116.645,326.036 116.645,568.943C116.645,811.85 313.561,1008.76 556.468,1008.76L556.468,890.013C379.145,890.013 235.397,746.265 235.397,568.943C235.397,391.62 379.145,247.872 556.468,247.872L556.468,129.12Z" style="fill:white;"/>
                    <path d="M556.468,129.12C313.561,129.12 116.645,326.036 116.645,568.943C116.645,811.85 313.561,1008.76 556.468,1008.76L556.468,890.013C379.145,890.013 235.397,746.265 235.397,568.943C235.397,391.62 379.145,247.872 556.468,247.872L556.468,129.12ZM536.39,150.522L536.39,227.524C357.127,237.947 215.32,387.046 215.32,568.943C215.32,750.839 357.127,899.938 536.39,910.361L536.39,987.363C314.098,976.91 136.723,793.805 136.723,568.943C136.723,344.08 314.098,160.975 536.39,150.522Z" style="fill:white;"/>
                </g>
                <g transform="matrix(1.06304,0,0,1.06196,-86.2604,-89.8948)">
                    <g id="shade">
                        <path d="M556.468,129.12C313.561,129.12 116.645,326.036 116.645,568.943C116.645,811.85 313.561,1008.76 556.468,1008.76L556.468,969.181C335.422,969.181 156.229,789.988 156.229,568.943C156.229,347.897 335.422,168.704 556.468,168.704L556.468,129.12Z" style="fill:rgb(143,143,143);fill-opacity:0.18;"/>
                    </g>
                </g>
            </g>
        </g>
    </g>
</svg>
