<?xml version="1.0" encoding="UTF-8" standalone="no"?>
<!DOCTYPE svg PUBLIC "-//W3C//DTD SVG 1.1//EN" "http://www.w3.org/Graphics/SVG/1.1/DTD/svg11.dtd">
<svg width="100%" height="100%" viewBox="0 0 140 140" version="1.1" xmlns="http://www.w3.org/2000/svg" xmlns:xlink="http://www.w3.org/1999/xlink" xml:space="preserve" xmlns:serif="http://www.serif.com/" style="fill-rule:evenodd;clip-rule:evenodd;stroke-linejoin:round;stroke-miterlimit:2;">
    <g transform="matrix(1,0,0,1,20,4.5)">
        <path d="M77.995,90.554C79.67,94.509 81.348,98.463 83.02,102.419C84.92,106.918 86.793,111.428 88.721,115.915C89.386,117.461 89.507,118.945 88.326,120.235C87.177,121.491 85.716,121.545 84.165,120.996C80.462,119.689 76.738,118.442 73.045,117.106C72.139,116.779 71.767,117.016 71.386,117.848C69.68,121.553 67.944,125.244 66.178,128.92C65.475,130.389 64.242,130.938 62.648,130.82C61.234,130.716 60.361,129.921 59.84,128.682C57.095,122.148 54.361,115.61 51.62,109.075C51.494,108.773 51.335,108.485 51.11,108.024C50.167,110.247 49.277,112.322 48.406,114.404C46.423,119.147 44.456,123.895 42.466,128.634C41.871,130.052 40.837,130.817 39.233,130.832C37.62,130.848 36.641,130.066 35.984,128.67C34.249,124.978 32.471,121.306 30.744,117.611C30.424,116.928 30.098,116.824 29.383,117.078C25.475,118.465 21.547,119.798 17.619,121.128C16.247,121.592 14.933,121.349 13.974,120.28C13.014,119.21 12.735,117.92 13.338,116.49C16.546,108.876 19.726,101.251 22.922,93.633C23.078,93.263 23.292,92.916 23.478,92.558C23.968,92.763 24.428,93.012 24.742,93.464C23.162,97.297 21.592,101.134 19.997,104.962C18.359,108.894 16.692,112.814 15.047,116.744C14.689,117.601 14.567,118.478 15.296,119.211C15.967,119.887 16.743,119.684 17.544,119.404C21.631,117.971 25.737,116.593 29.813,115.13C30.854,114.757 31.362,114.952 31.832,115.983C33.645,119.963 35.552,123.899 37.419,127.853C37.788,128.635 38.31,129.243 39.235,129.23C40.105,129.218 40.643,128.658 40.962,127.896C43.883,120.919 46.772,113.927 49.741,106.971C50.203,105.886 50.126,105.051 49.479,104.151C49.179,104.331 49.13,104.591 49.033,104.821C46.143,111.693 43.254,118.566 40.36,125.435C40.167,125.892 40.108,126.539 39.458,126.552C38.768,126.567 38.645,125.896 38.406,125.422C36.422,121.478 34.429,117.539 32.49,113.574C32.143,112.864 31.814,112.699 31.065,112.96C28.918,113.711 26.746,114.39 24.581,115.087C22.381,115.797 20.176,116.49 17.976,117.201C17.609,117.32 17.255,117.425 16.959,117.094C16.705,116.809 16.781,116.483 16.914,116.162C17.027,115.891 17.12,115.612 17.234,115.34C20.201,108.262 23.17,101.185 26.138,94.107C28.618,94.76 31.158,94.694 33.667,94.538C36.983,94.332 39.814,95.388 42.51,97.193C44.696,98.656 46.946,100.068 49.722,100.126C53.546,109.271 57.375,118.414 61.185,127.565C61.545,128.43 61.965,129.2 63.002,129.228C64.038,129.256 64.532,128.513 64.927,127.671C66.692,123.913 68.445,120.149 70.25,116.411C71.093,114.665 70.678,114.554 72.932,115.331C76.886,116.694 80.844,118.05 84.79,119.438C85.658,119.743 86.435,119.806 87.104,119.077C87.782,118.338 87.589,117.563 87.238,116.731C83.761,108.475 80.304,100.211 76.841,91.949C77.195,91.459 77.482,90.913 77.995,90.554" style="fill:rgb(252,205,211);"/>
        <g transform="matrix(1,0,0,1,0,0.057)">
            <path d="M33.473,7.705C31.687,7.705 30.471,7.655 29.261,7.715C27.057,7.825 25.221,8.646 23.908,10.525C22.892,11.979 22.052,13.528 21.255,15.1C19.824,17.923 17.719,20.032 14.892,21.453C13.646,22.08 12.446,22.8 11.232,23.488C8.692,24.928 7.499,27.136 7.524,30.036C7.54,31.913 7.524,33.791 7.554,35.668C7.586,37.748 7.054,39.668 6.002,41.448C5.16,42.871 4.32,44.298 3.447,45.702C1.643,48.606 1.552,51.5 3.421,54.412C3.857,55.092 4.21,55.83 4.681,56.484C6.898,59.564 7.888,62.968 7.563,66.767C7.463,67.937 7.519,69.122 7.529,70.299C7.55,72.81 8.417,74.902 10.601,76.301C11.435,76.835 12.262,77.41 13.161,77.811C17.191,79.607 20.211,82.398 22.008,86.474C22.378,87.311 22.885,88.088 23.344,88.884C24.782,91.378 26.983,92.528 29.822,92.527C31.772,92.527 33.722,92.522 35.671,92.503C37.751,92.483 39.655,93.078 41.431,94.123C42.855,94.963 44.279,95.806 45.683,96.68C48.486,98.426 51.279,98.448 54.089,96.703C55.15,96.043 56.245,95.437 57.291,94.753C59.699,93.181 62.288,92.329 65.199,92.49C66.777,92.577 68.362,92.523 69.944,92.528C72.827,92.536 75.058,91.378 76.501,88.83C77.189,87.614 77.911,86.415 78.537,85.167C79.955,82.34 82.034,80.207 84.874,78.794C86.155,78.156 87.397,77.432 88.627,76.698C90.625,75.508 91.965,73.864 92.193,71.444C92.405,69.201 92.258,66.958 92.252,64.716C92.245,62.442 92.812,60.36 93.987,58.426C94.846,57.012 95.685,55.586 96.538,54.169C98.119,51.544 98.198,48.896 96.649,46.233C95.965,45.058 95.276,43.883 94.539,42.741C92.957,40.296 92.079,37.677 92.251,34.721C92.344,33.107 92.307,31.483 92.284,29.864C92.25,27.404 91.398,25.355 89.268,23.94C87.825,22.981 86.308,22.157 84.772,21.372C82.062,19.986 80.028,17.949 78.635,15.242C77.937,13.905 77.203,12.588 76.433,11.292C75.247,9.27 73.538,7.982 71.153,7.764C70.239,7.68 69.316,7.711 68.398,7.694C66.414,7.659 64.42,7.859 62.447,7.59C60.009,7.257 57.918,6.025 56.002,4.61C51.909,1.587 47.955,1.544 43.862,4.595C40.63,7.005 37.02,8.315 33.473,7.705M24.742,93.406C24.428,92.955 23.969,92.706 23.478,92.501C21.367,90.017 20.081,87.021 18.381,84.281C17.314,82.562 15.675,81.518 13.948,80.576C12.271,79.661 10.544,78.831 9.01,77.672C6.782,75.987 5.634,73.738 5.548,70.958C5.508,69.635 5.443,68.298 5.568,66.985C5.902,63.481 4.938,60.387 2.942,57.533C2.187,56.453 1.543,55.282 0.962,54.097C-0.355,51.417 -0.295,48.712 0.992,46.021C1.724,44.49 2.655,43.076 3.56,41.649C4.935,39.478 5.724,37.175 5.574,34.563C5.484,32.985 5.553,31.399 5.534,29.816C5.489,26.25 7.076,23.609 10.094,21.799C11.259,21.099 12.437,20.412 13.656,19.816C16.334,18.506 18.303,16.541 19.626,13.86C20.534,12.018 21.477,10.185 22.84,8.607C24.513,6.67 26.652,5.791 29.156,5.719C30.442,5.682 31.741,5.601 33.015,5.733C36.608,6.105 39.746,5.036 42.653,3.003C43.613,2.331 44.662,1.78 45.703,1.237C48.516,-0.232 51.336,-0.158 54.163,1.244C55.617,1.966 56.978,2.84 58.336,3.715C60.536,5.133 62.896,5.861 65.528,5.746C67.108,5.677 68.691,5.723 70.272,5.709C73.842,5.677 76.452,7.31 78.238,10.339C78.965,11.574 79.692,12.814 80.328,14.097C81.567,16.599 83.428,18.433 85.918,19.677C87.462,20.45 88.983,21.271 90.409,22.253C92.961,24.01 94.245,26.444 94.278,29.537C94.29,30.752 94.37,31.976 94.253,33.18C93.908,36.722 94.878,39.858 96.911,42.732C97.546,43.629 98.071,44.609 98.594,45.578C100.338,48.805 100.164,51.995 98.335,55.128C97.427,56.684 96.503,58.23 95.582,59.778C94.656,61.335 94.232,63.018 94.254,64.827C94.274,66.667 94.254,68.508 94.284,70.348C94.345,73.918 92.766,76.564 89.765,78.39C88.475,79.169 87.159,79.904 85.819,80.594C83.644,81.726 81.857,83.237 80.708,85.449C79.827,87.144 78.902,88.816 77.996,90.497C77.482,90.856 77.195,91.401 76.84,91.892C76.374,92.155 76.018,92.542 75.677,92.943C73.707,94.265 71.51,94.611 69.188,94.531C67.538,94.474 65.885,94.518 64.233,94.514C63.095,94.502 61.968,94.731 60.925,95.185C57.657,96.622 54.914,99.073 51.435,100.102C50.867,99.94 50.293,100.066 49.722,100.068C46.946,100.011 44.696,98.598 42.51,97.135C39.814,95.331 36.983,94.275 33.667,94.481C31.158,94.637 28.617,94.703 26.137,94.051C25.717,93.737 25.272,93.48 24.742,93.406" style="fill:rgb(101,52,255);"/>
        </g>
        <path d="M64.014,60.57C64.908,60.596 65.509,59.856 65.248,58.94C63.658,53.368 62.044,47.802 60.436,42.235C60.188,41.377 59.534,41.204 58.784,41.382C58.172,41.528 58.01,42.106 57.851,42.644C56.819,46.124 55.787,49.606 54.753,53.086C54.188,54.984 53.598,56.876 53.066,58.782C52.846,59.568 53.013,60.299 53.923,60.526C54.716,60.724 55.261,60.405 55.475,59.55C55.679,58.733 55.987,57.941 56.192,57.124C56.334,56.561 56.627,56.359 57.202,56.374C58.486,56.407 59.773,56.407 61.058,56.374C61.663,56.36 61.997,56.52 62.125,57.174C62.28,57.964 62.553,58.73 62.797,59.499C62.985,60.09 63.283,60.583 64.014,60.569M35.128,51.001C35.041,51.915 35.305,52.778 35.732,53.615C36.55,55.218 37.366,56.825 38.142,58.448C38.768,59.756 39.713,60.532 41.206,60.583C42.778,60.637 43.74,59.813 44.386,58.478C45.231,56.724 46.112,54.987 46.937,53.224C47.647,51.706 47.642,50.164 46.904,48.648C45.988,46.765 45.083,44.875 44.121,43.015C42.969,40.787 39.767,40.627 38.516,42.81C37.35,44.847 36.4,47.007 35.386,49.128C35.116,49.695 35.069,50.333 35.128,51.001M70.878,50.624C70.878,53.42 70.888,56.216 70.871,59.012C70.866,59.922 71.188,60.548 72.163,60.559C73.276,60.572 73.445,59.727 73.463,58.88C73.497,57.299 73.501,55.715 73.461,54.135C73.445,53.459 73.671,53.24 74.344,53.255C76.071,53.293 77.801,53.295 79.528,53.258C81.584,53.214 83.145,51.67 83.208,49.61C83.255,48.066 83.258,46.518 83.208,44.974C83.138,42.873 81.516,41.342 79.418,41.336C76.918,41.329 74.418,41.366 71.918,41.316C71.115,41.3 70.84,41.493 70.857,42.346C70.912,45.104 70.877,47.864 70.877,50.624M17.235,50.658C17.235,53.38 17.234,56.103 17.237,58.826C17.237,59.118 17.197,59.436 17.295,59.699C17.521,60.311 17.984,60.629 18.665,60.566C19.515,60.488 19.778,59.86 19.801,59.176C19.857,57.559 19.868,55.938 19.814,54.321C19.788,53.519 19.989,53.214 20.847,53.248C22.535,53.313 24.229,53.298 25.92,53.256C27.919,53.207 29.485,51.686 29.562,49.686C29.622,48.106 29.621,46.52 29.563,44.94C29.486,42.844 27.857,41.34 25.743,41.336C23.243,41.33 20.741,41.373 18.243,41.314C17.385,41.294 17.203,41.581 17.217,42.38C17.264,45.138 17.235,47.898 17.235,50.658M33.473,7.762C37.02,8.372 40.63,7.062 43.862,4.652C47.955,1.602 51.909,1.644 56.002,4.667C57.918,6.082 60.008,7.314 62.447,7.647C64.42,7.916 66.414,7.717 68.397,7.752C69.317,7.768 70.239,7.738 71.152,7.822C73.538,8.039 75.247,9.327 76.433,11.35C77.196,12.65 77.945,13.96 78.635,15.299C80.028,18.006 82.062,20.043 84.772,21.429C86.309,22.214 87.825,23.039 89.268,23.997C91.398,25.412 92.25,27.461 92.284,29.921C92.307,31.541 92.344,33.165 92.251,34.779C92.08,37.734 92.957,40.353 94.538,42.799C95.276,43.94 95.965,45.115 96.649,46.291C98.199,48.953 98.119,51.601 96.539,54.226C95.685,55.643 94.846,57.069 93.987,58.483C92.813,60.417 92.245,62.5 92.252,64.773C92.258,67.015 92.405,69.259 92.193,71.502C91.965,73.922 90.625,75.565 88.627,76.756C87.397,77.489 86.156,78.214 84.874,78.851C82.034,80.265 79.955,82.397 78.537,85.225C77.911,86.472 77.189,87.671 76.501,88.887C75.058,91.436 72.827,92.594 69.944,92.585C68.362,92.58 66.777,92.635 65.199,92.547C62.288,92.387 59.699,93.238 57.291,94.811C56.245,95.494 55.151,96.101 54.089,96.761C51.279,98.505 48.486,98.483 45.683,96.737C44.276,95.867 42.858,95.015 41.43,94.18C39.655,93.135 37.75,92.54 35.67,92.56C33.722,92.58 31.772,92.584 29.822,92.584C26.982,92.585 24.782,91.435 23.344,88.941C22.885,88.145 22.377,87.368 22.008,86.531C20.211,82.455 17.191,79.664 13.161,77.868C12.261,77.468 11.435,76.892 10.601,76.358C8.417,74.958 7.55,72.868 7.529,70.356C7.519,69.179 7.462,67.994 7.563,66.824C7.888,63.025 6.898,59.622 4.681,56.541C4.21,55.887 3.858,55.149 3.421,54.469C1.552,51.557 1.643,48.663 3.447,45.759C4.32,44.354 5.16,42.929 6.002,41.505C7.055,39.725 7.586,37.805 7.554,35.725C7.524,33.848 7.54,31.971 7.524,30.093C7.499,27.193 8.692,24.986 11.232,23.545C12.446,22.857 13.646,22.137 14.892,21.51C17.719,20.09 19.824,17.98 21.255,15.157C22.052,13.585 22.892,12.036 23.908,10.582C25.221,8.703 27.058,7.882 29.26,7.772C30.471,7.712 31.687,7.762 33.473,7.762" style="fill:rgb(254,254,254);"/>
        <path d="M75.677,93L83.827,112.505C84.295,113.622 84.775,114.735 85.223,115.86C85.38,116.254 85.654,116.688 85.283,117.1C84.903,117.52 84.469,117.26 84.057,117.127C79.797,115.757 75.53,114.41 71.286,112.994C70.441,112.712 70.095,112.893 69.712,113.677C67.782,117.643 65.784,121.577 63.806,125.52C63.596,125.938 63.46,126.428 62.832,126.424C62.178,126.42 62.095,125.88 61.922,125.468C58.494,117.314 55.079,109.155 51.668,100.995C51.557,100.73 51.511,100.438 51.435,100.159C54.914,99.13 57.658,96.679 60.925,95.243C61.968,94.789 63.095,94.56 64.233,94.571C65.885,94.576 67.538,94.531 69.188,94.588C71.51,94.668 73.708,94.322 75.677,93" style="fill:rgb(252,205,211);"/>
        <path d="M19.724,47.262C19.724,48.18 19.741,49.098 19.717,50.016C19.704,50.546 19.83,50.83 20.446,50.819C22.17,50.789 23.895,50.813 25.619,50.806C26.56,50.801 27.059,50.266 27.091,49.373C27.139,48.016 27.146,46.655 27.093,45.298C27.058,44.372 26.574,43.808 25.553,43.82C23.903,43.84 22.25,43.847 20.6,43.815C19.918,43.801 19.688,44.075 19.716,44.729C19.751,45.572 19.724,46.418 19.724,47.262M17.235,50.658C17.235,47.898 17.264,45.138 17.217,42.38C17.204,41.58 17.385,41.293 18.243,41.314C20.741,41.373 23.243,41.33 25.743,41.336C27.857,41.341 29.486,42.844 29.563,44.941C29.622,46.522 29.622,48.105 29.562,49.686C29.485,51.686 27.919,53.207 25.919,53.256C24.229,53.298 22.535,53.313 20.847,53.248C19.989,53.214 19.787,53.518 19.814,54.321C19.865,55.939 19.86,57.558 19.801,59.176C19.778,59.86 19.516,60.488 18.665,60.566C17.984,60.629 17.521,60.311 17.295,59.699C17.198,59.436 17.237,59.119 17.237,58.826C17.234,56.103 17.235,53.38 17.235,50.658M73.367,47.307C73.367,48.225 73.391,49.144 73.358,50.061C73.337,50.643 73.57,50.826 74.133,50.818C75.82,50.793 77.509,50.806 79.196,50.809C80.19,50.811 80.708,50.278 80.737,49.329C80.787,47.971 80.785,46.612 80.731,45.254C80.689,44.317 80.159,43.801 79.151,43.818C77.537,43.845 75.921,43.851 74.308,43.813C73.586,43.796 73.318,44.058 73.356,44.773C73.399,45.616 73.366,46.463 73.366,47.307M70.878,50.624C70.878,47.864 70.912,45.104 70.857,42.346C70.84,41.494 71.115,41.3 71.919,41.316C74.418,41.366 76.919,41.329 79.419,41.336C81.516,41.342 83.138,42.873 83.207,44.974C83.258,46.518 83.255,48.066 83.208,49.61C83.145,51.67 81.584,53.214 79.528,53.258C77.8,53.295 76.072,53.293 74.344,53.254C73.672,53.24 73.444,53.459 73.462,54.134C73.501,55.716 73.497,57.299 73.463,58.88C73.445,59.727 73.276,60.572 72.163,60.56C71.188,60.548 70.866,59.923 70.871,59.012C70.888,56.216 70.878,53.42 70.878,50.624M44.894,50.972C44.823,50.615 44.82,50.225 44.668,49.906C43.788,48.047 42.876,46.204 41.934,44.376C41.52,43.581 40.868,43.589 40.45,44.399C39.543,46.162 38.692,47.955 37.848,49.749C37.412,50.676 37.528,51.615 37.971,52.513C38.767,54.127 39.579,55.734 40.381,57.346C40.565,57.715 40.751,58.108 41.237,58.086C41.654,58.068 41.841,57.726 42.011,57.386C42.85,55.711 43.697,54.04 44.536,52.364C44.752,51.932 44.879,51.472 44.894,50.972M35.128,51.002C35.068,50.333 35.115,49.695 35.386,49.128C36.4,47.008 37.351,44.846 38.516,42.811C39.766,40.626 42.969,40.787 44.121,43.015C45.083,44.875 45.988,46.765 46.904,48.648C47.642,50.163 47.647,51.706 46.937,53.224C46.112,54.987 45.231,56.724 44.385,58.478C43.74,59.814 42.778,60.637 41.206,60.583C39.713,60.532 38.768,59.756 38.142,58.449C37.36,56.827 36.556,55.216 35.732,53.615C35.305,52.778 35.041,51.915 35.128,51.001M59.333,47.58L59.049,47.586C58.711,48.732 58.345,49.871 58.043,51.026C57.797,51.971 56.872,53.236 57.513,53.776C58.14,54.304 59.538,53.906 60.597,53.928C61.057,53.938 61.146,53.785 61.011,53.338C60.432,51.424 59.889,49.5 59.333,47.579M64.014,60.569C63.284,60.583 62.984,60.09 62.797,59.499C62.553,58.729 62.28,57.963 62.125,57.175C61.997,56.52 61.663,56.359 61.058,56.375C59.773,56.408 58.487,56.408 57.202,56.375C56.627,56.359 56.334,56.561 56.192,57.125C55.987,57.941 55.679,58.733 55.475,59.55C55.261,60.405 54.715,60.724 53.923,60.526C53.013,60.299 52.846,59.568 53.066,58.782C53.598,56.875 54.188,54.984 54.753,53.086C55.787,49.606 56.819,46.125 57.851,42.644C58.01,42.106 58.171,41.528 58.784,41.382C59.534,41.204 60.188,41.377 60.436,42.235C62.044,47.802 63.658,53.368 65.248,58.94C65.51,59.856 64.908,60.596 64.014,60.569" style="fill:rgb(101,52,255);"/>
        <path d="M19.724,47.262C19.724,46.418 19.751,45.572 19.716,44.729C19.689,44.075 19.918,43.801 20.6,43.815C22.25,43.847 23.902,43.839 25.553,43.82C26.574,43.808 27.057,44.372 27.093,45.298C27.143,46.656 27.142,48.015 27.091,49.373C27.059,50.266 26.561,50.801 25.619,50.806C23.895,50.813 22.169,50.789 20.446,50.819C19.83,50.83 19.704,50.546 19.717,50.016C19.741,49.098 19.724,48.18 19.724,47.262M73.366,47.307C73.366,46.462 73.399,45.617 73.356,44.774C73.319,44.058 73.586,43.796 74.308,43.814C75.921,43.851 77.537,43.845 79.151,43.818C80.159,43.801 80.689,44.318 80.731,45.254C80.793,46.609 80.779,47.971 80.737,49.328C80.708,50.278 80.19,50.811 79.197,50.809C77.509,50.806 75.82,50.793 74.133,50.818C73.57,50.826 73.337,50.643 73.358,50.061C73.391,49.144 73.367,48.225 73.366,47.307M44.894,50.972C44.879,51.472 44.752,51.932 44.536,52.364C43.697,54.04 42.85,55.711 42.011,57.386C41.841,57.726 41.654,58.068 41.237,58.086C40.751,58.108 40.565,57.715 40.381,57.346C39.579,55.734 38.767,54.127 37.971,52.513C37.528,51.615 37.412,50.676 37.848,49.749C38.692,47.955 39.543,46.162 40.45,44.399C40.868,43.589 41.52,43.581 41.934,44.375C42.884,46.199 43.78,48.051 44.668,49.906C44.82,50.225 44.823,50.615 44.894,50.972M59.333,47.58C59.889,49.5 60.433,51.424 61.011,53.338C61.146,53.785 61.058,53.938 60.597,53.928C59.538,53.905 58.14,54.304 57.514,53.777C56.872,53.237 57.797,51.971 58.044,51.027C58.345,49.871 58.711,48.732 59.049,47.586L59.333,47.579" style="fill:rgb(254,254,254);"/>
    </g>
</svg>
