<?xml version="1.0" encoding="UTF-8" standalone="no"?>
<!DOCTYPE svg PUBLIC "-//W3C//DTD SVG 1.1//EN" "http://www.w3.org/Graphics/SVG/1.1/DTD/svg11.dtd">
<svg width="100%" height="100%" viewBox="0 0 1080 1080" version="1.1" xmlns="http://www.w3.org/2000/svg" xmlns:xlink="http://www.w3.org/1999/xlink" xml:space="preserve" xmlns:serif="http://www.serif.com/" style="fill-rule:evenodd;clip-rule:evenodd;stroke-linejoin:round;stroke-miterlimit:2;">
    <g id="Monthly-POAP" serif:id="Monthly POAP">
        <g id="Backdrop" transform="matrix(2.21705,0,0,2.21705,-400.186,-823.814)">
            <circle cx="424.07" cy="615.147" r="243.566" style="fill:white;"/>
        </g>
        <g transform="matrix(1,0.091307,2.77556e-17,1,-55.6843,-85.3177)">
            <path d="M758.999,217.222L764.83,235.168L783.7,235.168L768.434,246.259L774.265,264.205L758.999,253.114L743.733,264.205L749.564,246.259L734.298,235.168L753.168,235.168L758.999,217.222Z"/>
            <path d="M758.999,217.222L764.83,235.168L783.7,235.168L768.434,246.259L774.265,264.205L758.999,253.114L743.733,264.205L749.564,246.259L734.298,235.168L753.168,235.168L758.999,217.222Z"/>
        </g>
        <g id="figure" transform="matrix(1,0,0,1,-36,0)">
            <g transform="matrix(0.739223,0.39412,-0.66842,1.25371,314.38,-102.259)">
                <rect x="884.028" y="433.95" width="73.592" height="138.338"/>
                <path d="M957.62,433.95L884.028,433.95L884.028,572.289L957.62,572.289L957.62,433.95ZM933.746,448.027L933.746,558.212C933.746,558.212 907.902,558.212 907.902,558.212C907.902,558.212 907.902,448.027 907.902,448.027L933.746,448.027Z"/>
            </g>
            <g transform="matrix(0.830608,-0.108953,0.167953,1.2804,-159.311,189.637)">
                <rect x="884.028" y="433.95" width="73.592" height="138.338"/>
                <path d="M957.62,433.95L884.028,433.95L884.028,572.289L957.62,572.289L957.62,433.95ZM933.746,449.438L933.746,556.801C933.746,556.801 907.902,556.801 907.902,556.801C907.902,556.801 907.902,449.438 907.902,449.438L933.746,449.438Z"/>
            </g>
            <g transform="matrix(-0.6612,1.16867,-1.07787,-0.609832,1732.6,6.65135)">
                <rect x="655.256" y="433.95" width="201.124" height="153.671"/>
                <path d="M856.38,433.95L655.256,433.95L655.256,587.622L856.38,587.622L856.38,433.95ZM841.486,450.1L841.486,571.472C841.486,571.472 670.151,571.472 670.151,571.472C670.151,571.472 670.151,450.1 670.151,450.1L841.486,450.1Z"/>
            </g>
            <g transform="matrix(1.1875,0,0,1.03571,-165.755,-9.44367)">
                <ellipse cx="812.08" cy="346.264" rx="71.948" ry="81.841"/>
                <path d="M812.08,264.423C851.789,264.423 884.028,301.094 884.028,346.264C884.028,391.433 851.789,428.104 812.08,428.104C772.371,428.104 740.132,391.433 740.132,346.264C740.132,301.094 772.371,264.423 812.08,264.423ZM812.08,283.733C842.457,283.733 867.186,311.71 867.186,346.264C867.186,380.818 842.457,408.794 812.08,408.794C781.703,408.794 756.974,380.818 756.974,346.264C756.974,311.71 781.703,283.733 812.08,283.733Z"/>
            </g>
            <g transform="matrix(0.650236,0.52818,-0.814198,1.00235,738.975,-467.945)">
                <rect x="884.028" y="433.95" width="73.592" height="138.338"/>
                <path d="M957.62,433.95L884.028,433.95L884.028,572.289L957.62,572.289L957.62,433.95ZM933.746,449.438L933.746,556.801C933.746,556.801 907.902,556.801 907.902,556.801C907.902,556.801 907.902,449.438 907.902,449.438L933.746,449.438Z"/>
            </g>
            <g transform="matrix(-0.412662,0.729035,-2.32064,-1.31357,2295.38,483.369)">
                <rect x="884.028" y="433.95" width="73.592" height="138.338"/>
                <path d="M957.62,433.95L884.028,433.95L884.028,572.289L957.62,572.289L957.62,433.95ZM933.746,441.45L933.746,564.788C933.746,564.788 907.902,564.788 907.902,564.788C907.902,564.788 907.902,441.45 907.902,441.45L933.746,441.45Z"/>
            </g>
        </g>
        <g id="wizard-hat" serif:id="wizard hat" transform="matrix(2.01053,-0.245817,0.245817,2.01053,426.77,7.32941)">
            <g transform="matrix(0.478912,-0.119955,0.133283,0.532124,-298.801,100.172)">
                <path d="M828.183,141.347L915.324,314.257L741.042,314.257L828.183,141.347Z" style="fill:white;"/>
                <clipPath id="_clip1">
                    <path d="M828.183,141.347L915.324,314.257L741.042,314.257L828.183,141.347Z"/>
                </clipPath>
                <g clip-path="url(#_clip1)">
                    <g transform="matrix(1.01426,0.000517007,-0.000629308,1,-11.7413,10.9644)">
                        <path d="M828.789,314.257L741.042,314.257L828.183,141.347" style="fill:rgb(211,211,211);fill-opacity:0.07;"/>
                    </g>
                </g>
                <path d="M828.183,141.347L915.324,314.257L741.042,314.257L828.183,141.347ZM828.183,193.639L878.085,292.657C878.085,292.657 778.281,292.657 778.281,292.657L828.183,193.639Z"/>
            </g>
            <g transform="matrix(0.478912,-0.119955,0.119955,0.478912,-274.159,107.93)">
                <rect x="666.938" y="288.183" width="233.291" height="67.243" style="fill:white;"/>
                <g transform="matrix(1.04437,-0.00956457,0.00915781,0.999958,-38.0317,-11.9385)">
                    <rect x="693.43" y="329.395" width="41.82" height="23.383" style="fill:rgb(211,211,211);fill-opacity:0.07;"/>
                </g>
                <path d="M900.229,288.183L666.938,288.183L666.938,355.426L900.229,355.426L900.229,288.183ZM876.229,312.183L876.229,331.426C876.229,331.426 690.938,331.426 690.938,331.426C690.938,331.426 690.938,312.183 690.938,312.183C690.938,312.183 876.229,312.183 876.229,312.183L876.229,312.183Z"/>
            </g>
            <g transform="matrix(0.226293,0.0702749,-0.0492026,0.230785,19.6038,49.2737)">
                <path d="M758.999,217.222L764.83,235.168L783.7,235.168L768.434,246.259L774.265,264.205L758.999,253.114L743.733,264.205L749.564,246.259L734.298,235.168L753.168,235.168L758.999,217.222Z" style="fill:rgb(109,22,73);"/>
                <path d="M758.999,217.222L764.83,235.168L783.7,235.168L768.434,246.259L774.265,264.205L758.999,253.114L743.733,264.205L749.564,246.259L734.298,235.168L753.168,235.168L758.999,217.222Z"/>
            </g>
            <g transform="matrix(0.494936,-0.123968,0.123968,0.494936,-274.319,99.5291)">
                <path d="M754.864,101.55L761.84,123.021L784.416,123.021L766.152,136.29L773.128,157.761L754.864,144.491L736.6,157.761L743.577,136.29L725.313,123.021L747.888,123.021L754.864,101.55Z" style="fill:rgb(109,22,73);"/>
                <path d="M754.864,101.55L761.84,123.021L784.416,123.021L766.152,136.29L773.128,157.761L754.864,144.491L736.6,157.761L743.577,136.29L725.313,123.021L747.888,123.021L754.864,101.55Z"/>
            </g>
            <g transform="matrix(0.446757,0.214908,-0.172676,0.462524,-176.784,-151.923)">
                <path d="M758.999,217.222L764.83,235.168L783.7,235.168L768.434,246.259L774.265,264.205L758.999,253.114L743.733,264.205L749.564,246.259L734.298,235.168L753.168,235.168L758.999,217.222Z" style="fill:rgb(109,22,73);"/>
                <path d="M758.999,217.222L764.83,235.168L783.7,235.168L768.434,246.259L774.265,264.205L758.999,253.114L743.733,264.205L749.564,246.259L734.298,235.168L753.168,235.168L758.999,217.222Z"/>
            </g>
            <g transform="matrix(0.490522,-0.0718738,0.115697,0.479958,-264.59,108.968)">
                <path d="M758.999,217.222L764.83,235.168L783.7,235.168L768.434,246.259L774.265,264.205L758.999,253.114L743.733,264.205L749.564,246.259L734.298,235.168L753.168,235.168L758.999,217.222Z" style="fill:rgb(109,22,73);"/>
                <path d="M758.999,217.222L764.83,235.168L783.7,235.168L768.434,246.259L774.265,264.205L758.999,253.114L743.733,264.205L749.564,246.259L734.298,235.168L753.168,235.168L758.999,217.222Z"/>
            </g>
            <g transform="matrix(0.226293,0.0702749,-0.0492026,0.230785,-21.4503,30.6249)">
                <path d="M758.999,217.222L764.83,235.168L783.7,235.168L768.434,246.259L774.265,264.205L758.999,253.114L743.733,264.205L749.564,246.259L734.298,235.168L753.168,235.168L758.999,217.222Z" style="fill:rgb(109,22,73);"/>
                <path d="M758.999,217.222L764.83,235.168L783.7,235.168L768.434,246.259L774.265,264.205L758.999,253.114L743.733,264.205L749.564,246.259L734.298,235.168L753.168,235.168L758.999,217.222Z"/>
            </g>
            <g transform="matrix(0.226293,0.0702749,-0.0492026,0.230785,-21.4503,30.6249)">
                <path d="M758.999,217.222L764.83,235.168L783.7,235.168L768.434,246.259L774.265,264.205L758.999,253.114L743.733,264.205L749.564,246.259L734.298,235.168L753.168,235.168L758.999,217.222Z" style="fill:rgb(109,22,73);"/>
                <path d="M758.999,217.222L764.83,235.168L783.7,235.168L768.434,246.259L774.265,264.205L758.999,253.114L743.733,264.205L749.564,246.259L734.298,235.168L753.168,235.168L758.999,217.222Z"/>
            </g>
            <g transform="matrix(0.140056,0.0434941,-0.0304521,0.142836,6.36778,109.379)">
                <path d="M758.999,217.222L764.83,235.168L783.7,235.168L768.434,246.259L774.265,264.205L758.999,253.114L743.733,264.205L749.564,246.259L734.298,235.168L753.168,235.168L758.999,217.222Z" style="fill:rgb(109,22,73);"/>
                <path d="M758.999,217.222L764.83,235.168L783.7,235.168L768.434,246.259L774.265,264.205L758.999,253.114L743.733,264.205L749.564,246.259L734.298,235.168L753.168,235.168L758.999,217.222Z"/>
            </g>
            <g transform="matrix(0.140056,0.0434941,-0.0304521,0.142836,63.4082,94.6879)">
                <path d="M758.999,217.222L764.83,235.168L783.7,235.168L768.434,246.259L774.265,264.205L758.999,253.114L743.733,264.205L749.564,246.259L734.298,235.168L753.168,235.168L758.999,217.222Z" style="fill:rgb(109,22,73);"/>
                <path d="M758.999,217.222L764.83,235.168L783.7,235.168L768.434,246.259L774.265,264.205L758.999,253.114L743.733,264.205L749.564,246.259L734.298,235.168L753.168,235.168L758.999,217.222Z"/>
            </g>
        </g>
        <g id="Logo-Inverted" serif:id="Logo Inverted" transform="matrix(1,0,0,1,-1.91215,-5.30014)">
            <g id="Onion-layers" serif:id="Onion layers" transform="matrix(1.06848,0,0,1.06849,-1.15381,-8.06948)">
                <g id="Cover-the-man-s-leg" serif:id="Cover the man&apos;s leg" transform="matrix(1.07316,0,0,1.07315,-89.2161,-92.6601)">
                    <path d="M556.468,129.12C313.561,129.12 116.645,326.036 116.645,568.943C116.645,811.85 313.561,1008.76 556.468,1008.76L556.468,129.12Z" style="fill:url(#_Linear2);"/>
                    <path d="M556.468,129.12C313.561,129.12 116.645,326.036 116.645,568.943C116.645,811.85 313.561,1008.76 556.468,1008.76L556.468,129.12ZM542.66,137.48C541.334,138.307 539.783,138.812 538.112,138.882C535.048,139.01 531.992,139.171 528.945,139.363C527.276,139.468 525.68,139.129 524.275,138.446C522.986,139.328 521.458,139.897 519.791,140.038C516.736,140.296 513.69,140.585 510.654,140.906C508.991,141.082 507.383,140.811 505.951,140.188C504.7,141.124 503.198,141.757 501.539,141.969C498.498,142.356 495.468,142.775 492.448,143.225C490.794,143.471 489.176,143.269 487.718,142.707C486.508,143.696 485.034,144.393 483.386,144.675C480.366,145.191 477.357,145.739 474.358,146.318C472.716,146.635 471.091,146.502 469.611,146.004C468.446,147.043 467.003,147.802 465.368,148.155C462.373,148.8 459.39,149.476 456.419,150.183C454.792,150.571 453.163,150.507 451.663,150.073C450.543,151.161 449.134,151.982 447.515,152.404C444.552,153.177 441.601,153.981 438.662,154.815C437.054,155.271 435.423,155.278 433.906,154.908C432.834,156.044 431.461,156.924 429.863,157.415C426.936,158.315 424.022,159.245 421.121,160.205C419.534,160.73 417.905,160.807 416.374,160.503C415.351,161.683 414.018,162.621 412.442,163.181C409.557,164.205 406.685,165.259 403.829,166.343C402.265,166.936 400.641,167.083 399.098,166.844C398.127,168.068 396.835,169.063 395.284,169.689C392.446,170.837 389.622,172.013 386.814,173.219C385.277,173.878 383.661,174.095 382.109,173.923C381.192,175.186 379.944,176.236 378.421,176.929C375.635,178.196 372.865,179.493 370.11,180.818C368.603,181.542 366.998,181.828 365.439,181.723C364.576,183.025 363.375,184.127 361.884,184.884C359.154,186.27 356.442,187.683 353.746,189.125C352.272,189.914 350.68,190.268 349.118,190.229C348.312,191.567 347.158,192.72 345.701,193.54C343.033,195.041 340.383,196.569 337.751,198.125C336.312,198.976 334.736,199.398 333.175,199.426C332.426,200.797 331.322,201.998 329.901,202.879C327.301,204.492 324.718,206.132 322.155,207.799C320.753,208.711 319.197,209.199 317.637,209.294C316.948,210.696 315.896,211.942 314.514,212.883C311.985,214.606 309.474,216.354 306.984,218.129C305.622,219.099 304.088,219.653 302.534,219.814C301.905,221.244 300.907,222.534 299.566,223.533C297.111,225.362 294.677,227.216 292.264,229.095C290.945,230.122 289.436,230.741 287.89,230.968C287.321,232.423 286.38,233.755 285.082,234.81C282.708,236.74 280.355,238.696 278.023,240.675C276.749,241.758 275.268,242.44 273.732,242.732C273.226,244.211 272.342,245.581 271.09,246.69C268.8,248.719 266.532,250.773 264.286,252.85C263.058,253.986 261.607,254.73 260.086,255.087C259.643,256.585 258.818,257.991 257.614,259.153C255.412,261.277 253.233,263.425 251.077,265.596C249.898,266.783 248.479,267.588 246.975,268.009C246.596,269.524 245.831,270.965 244.678,272.176C242.568,274.392 240.482,276.63 238.419,278.89C237.292,280.126 235.908,280.99 234.423,281.474C234.109,283.004 233.406,284.476 232.305,285.735C230.291,288.038 228.302,290.363 226.337,292.708C225.263,293.991 223.917,294.913 222.454,295.46C222.205,297.002 221.564,298.502 220.518,299.807C218.604,302.193 216.715,304.599 214.851,307.027C213.833,308.353 212.528,309.331 211.089,309.94C210.905,311.492 210.329,313.017 209.339,314.365C207.528,316.83 205.743,319.314 203.984,321.819C203.023,323.187 201.761,324.22 200.349,324.889C200.232,326.448 199.721,327.996 198.789,329.385C197.085,331.924 195.407,334.482 193.756,337.059C192.854,338.467 191.638,339.553 190.255,340.281C190.205,341.843 189.76,343.412 188.888,344.839C187.294,347.448 185.727,350.075 184.187,352.72C183.346,354.165 182.177,355.302 180.827,356.089C180.843,357.651 180.466,359.237 179.655,360.7C178.174,363.374 176.721,366.066 175.295,368.775C174.517,370.255 173.397,371.44 172.082,372.284C172.165,373.844 171.856,375.445 171.109,376.941C169.744,379.676 168.407,382.427 167.098,385.194C166.384,386.706 165.316,387.938 164.039,388.837C164.188,390.392 163.948,392.005 163.265,393.532C162.019,396.322 160.801,399.128 159.612,401.949C158.963,403.49 157.949,404.767 156.712,405.72C156.927,407.267 156.757,408.888 156.141,410.443C155.015,413.284 153.919,416.139 152.852,419.009C152.27,420.577 151.311,421.896 150.116,422.901C150.398,424.437 150.297,426.064 149.748,427.644C148.746,430.53 147.773,433.43 146.831,436.343C146.316,437.934 145.415,439.294 144.265,440.349C144.612,441.871 144.581,443.502 144.101,445.104C143.223,448.029 142.376,450.968 141.56,453.92C141.114,455.532 140.273,456.929 139.168,458.033C139.581,459.539 139.62,461.169 139.209,462.79C138.458,465.75 137.738,468.723 137.049,471.708C136.673,473.337 135.892,474.769 134.836,475.919C135.313,477.406 135.422,479.033 135.08,480.67C134.457,483.66 133.865,486.661 133.305,489.673C132.999,491.317 132.28,492.781 131.274,493.975C131.814,495.441 131.993,497.062 131.722,498.712C131.228,501.725 130.765,504.749 130.333,507.783C130.098,509.439 129.442,510.932 128.488,512.169C129.091,513.61 129.338,515.222 129.138,516.882C128.773,519.914 128.439,522.955 128.137,526.005C127.972,527.67 127.38,529.19 126.48,530.466C127.143,531.88 127.459,533.48 127.329,535.148C127.093,538.192 126.888,541.245 126.716,544.306C126.622,545.976 126.095,547.52 125.249,548.834C125.971,550.219 126.354,551.805 126.295,553.476C126.188,556.528 126.112,559.587 126.068,562.654C126.044,564.327 125.582,565.892 124.792,567.24C125.572,568.594 126.021,570.162 126.032,571.836C126.053,574.903 126.105,577.963 126.189,581.015C126.235,582.687 125.839,584.269 125.106,585.65C125.942,586.97 126.457,588.518 126.538,590.189C126.687,593.252 126.867,596.306 127.08,599.352C127.196,601.02 126.868,602.618 126.194,604.027C127.084,605.31 127.664,606.835 127.816,608.501C128.094,611.553 128.404,614.597 128.745,617.631C128.932,619.293 128.672,620.903 128.058,622.339C129.003,623.583 129.646,625.082 129.869,626.739C130.276,629.777 130.715,632.804 131.186,635.822C131.444,637.474 131.252,639.093 130.7,640.555C131.697,641.757 132.404,643.227 132.697,644.873C133.234,647.89 133.802,650.895 134.401,653.89C134.729,655.529 134.607,657.155 134.119,658.638C135.166,659.797 135.935,661.235 136.298,662.867C136.964,665.857 137.66,668.836 138.387,671.802C138.786,673.426 138.734,675.056 138.309,676.559C139.405,677.671 140.235,679.074 140.668,680.69C141.461,683.648 142.285,686.594 143.139,689.527C143.606,691.132 143.624,692.762 143.265,694.282C144.408,695.347 145.297,696.713 145.799,698.308C146.718,701.229 147.668,704.136 148.647,707.03C149.183,708.614 149.271,710.242 148.977,711.776C150.164,712.79 151.112,714.117 151.682,715.689C152.726,718.568 153.799,721.432 154.903,724.281C155.506,725.841 155.664,727.464 155.436,729.009C156.666,729.971 157.67,731.256 158.307,732.802C159.473,735.633 160.669,738.449 161.893,741.249C162.563,742.781 162.79,744.396 162.629,745.949C163.899,746.858 164.957,748.099 165.66,749.616C166.946,752.394 168.261,755.155 169.605,757.901C170.34,759.403 170.636,761.006 170.541,762.565C171.849,763.419 172.959,764.614 173.726,766.1C175.13,768.82 176.563,771.523 178.022,774.209C178.821,775.678 179.186,777.267 179.158,778.829C180.501,779.627 181.661,780.773 182.491,782.224C184.01,784.882 185.556,787.521 187.13,790.143C187.99,791.576 188.422,793.149 188.461,794.71C189.837,795.45 191.045,796.545 191.936,797.96C193.567,800.55 195.224,803.122 196.908,805.674C197.829,807.07 198.328,808.622 198.433,810.182C199.84,810.862 201.093,811.905 202.044,813.281C203.783,815.799 205.548,818.297 207.34,820.776C208.319,822.132 208.883,823.661 209.055,825.215C210.489,825.835 211.786,826.823 212.794,828.158C214.638,830.599 216.509,833.021 218.404,835.422C219.44,836.735 220.069,838.24 220.306,839.784C221.765,840.342 223.103,841.275 224.167,842.565C226.113,844.926 228.084,847.266 230.08,849.585C231.171,850.853 231.863,852.33 232.165,853.862C233.646,854.358 235.022,855.233 236.14,856.478C238.185,858.754 240.254,861.009 242.346,863.241C243.49,864.461 244.244,865.908 244.61,867.426C246.111,867.858 247.524,868.675 248.693,869.871C250.832,872.058 252.995,874.223 255.18,876.365C256.374,877.536 257.189,878.949 257.62,880.45C259.138,880.819 260.583,881.575 261.802,882.72C264.032,884.815 266.284,886.886 268.558,888.933C269.801,890.052 270.674,891.429 271.169,892.911C272.702,893.216 274.177,893.909 275.443,895.002C277.76,897 280.098,898.974 282.456,900.923C283.746,901.989 284.677,903.328 285.234,904.787C286.777,905.026 288.282,905.656 289.593,906.694C291.992,908.592 294.411,910.465 296.851,912.313C298.184,913.322 299.171,914.62 299.79,916.055C301.342,916.228 302.872,916.794 304.226,917.775C306.703,919.569 309.199,921.338 311.715,923.08C313.09,924.032 314.132,925.287 314.81,926.694C316.369,926.801 317.921,927.302 319.316,928.224C321.866,929.911 324.436,931.572 327.024,933.205C328.438,934.098 329.532,935.307 330.269,936.684C331.831,936.725 333.403,937.159 334.836,938.021C337.456,939.598 340.093,941.147 342.749,942.669C344.2,943.501 345.344,944.662 346.14,946.006C347.702,945.98 349.291,946.347 350.759,947.147C353.443,948.61 356.145,950.045 358.863,951.453C360.348,952.221 361.541,953.333 362.394,954.642C363.953,954.549 365.556,954.847 367.057,955.584C369.801,956.931 372.561,958.249 375.337,959.539C376.854,960.243 378.094,961.303 379.001,962.574C380.555,962.414 382.169,962.643 383.701,963.315C386.499,964.543 389.313,965.742 392.143,966.911C393.688,967.55 394.972,968.556 395.933,969.786C397.478,969.56 399.101,969.72 400.66,970.326C403.508,971.432 406.371,972.509 409.248,973.556C410.819,974.128 412.145,975.077 413.158,976.266C414.692,975.973 416.32,976.063 417.904,976.601C420.796,977.584 423.703,978.537 426.623,979.46C428.217,979.964 429.583,980.855 430.646,981.999C432.166,981.641 433.796,981.661 435.401,982.13C438.333,982.988 441.278,983.815 444.235,984.612C445.85,985.047 447.252,985.879 448.363,986.976C449.867,986.553 451.496,986.503 453.12,986.903C456.086,987.633 459.063,988.334 462.053,989.002C463.684,989.368 465.121,990.139 466.279,991.187C467.763,990.7 469.389,990.58 471.028,990.91C474.022,991.513 477.027,992.085 480.043,992.625C481.689,992.92 483.157,993.629 484.359,994.627C485.821,994.076 487.44,993.887 489.092,994.147C492.109,994.621 495.136,995.063 498.173,995.474C499.83,995.699 501.327,996.344 502.571,997.29C504.008,996.678 505.618,996.42 507.28,996.609C510.314,996.954 513.357,997.267 516.41,997.549C518.075,997.702 519.599,998.284 520.881,999.176C522.291,998.503 523.889,998.177 525.558,998.295C528.603,998.511 531.658,998.695 534.72,998.848C536.391,998.931 537.938,999.447 539.257,1000.28C540.638,999.553 542.221,999.159 543.893,999.207L547.09,999.282L547.09,993.478C547.09,991.77 547.548,990.168 548.349,988.789C547.548,987.41 547.09,985.809 547.09,984.101L547.09,974.723C547.09,973.015 547.548,971.414 548.35,970.035C547.548,968.656 547.09,967.054 547.09,965.346L547.09,955.968C547.09,954.26 547.548,952.658 548.35,951.279C547.548,949.901 547.09,948.299 547.09,946.591L547.09,937.213C547.09,935.506 547.548,933.904 548.35,932.525C547.548,931.146 547.09,929.544 547.09,927.836L547.09,918.459C547.09,916.751 547.548,915.149 548.35,913.77C547.548,912.391 547.09,910.789 547.09,909.081L547.09,899.704C547.09,897.996 547.548,896.394 548.35,895.015C547.548,893.637 547.09,892.035 547.09,890.327L547.09,880.95C547.09,879.242 547.548,877.64 548.35,876.261C547.548,874.882 547.09,873.28 547.09,871.572L547.09,862.194C547.09,860.487 547.548,858.885 548.35,857.506C547.548,856.127 547.09,854.525 547.09,852.817L547.09,843.44C547.09,841.732 547.548,840.13 548.35,838.751C547.548,837.372 547.09,835.77 547.09,834.062L547.09,824.685C547.09,822.977 547.548,821.375 548.35,819.996C547.548,818.617 547.09,817.015 547.09,815.307L547.09,805.929C547.09,804.222 547.548,802.62 548.35,801.241C547.548,799.862 547.09,798.26 547.09,796.552L547.09,787.175C547.09,785.467 547.548,783.865 548.35,782.486C547.548,781.107 547.09,779.505 547.09,777.797L547.09,768.42C547.09,766.712 547.548,765.11 548.35,763.731C547.548,762.352 547.09,760.75 547.09,759.042L547.09,749.665C547.09,747.957 547.548,746.355 548.35,744.976C547.548,743.597 547.09,741.995 547.09,740.287L547.09,730.91C547.09,729.202 547.548,727.6 548.35,726.221C547.548,724.842 547.09,723.24 547.09,721.533L547.09,712.155C547.09,710.447 547.548,708.846 548.35,707.467C547.548,706.088 547.09,704.486 547.09,702.778L547.09,693.4C547.09,691.693 547.548,690.091 548.35,688.712C547.548,687.333 547.09,685.731 547.09,684.023L547.09,674.646C547.09,672.938 547.548,671.336 548.35,669.957C547.548,668.578 547.09,666.976 547.09,665.268L547.09,655.891C547.09,654.183 547.548,652.581 548.35,651.202C547.548,649.823 547.09,648.221 547.09,646.514L547.09,637.136C547.09,635.428 547.548,633.826 548.35,632.448C547.548,631.069 547.09,629.467 547.09,627.759L547.09,618.382C547.09,616.674 547.548,615.072 548.35,613.693C547.548,612.314 547.09,610.712 547.09,609.004L547.09,599.627C547.09,597.919 547.548,596.317 548.35,594.938C547.548,593.559 547.09,591.958 547.09,590.25L547.09,580.872C547.09,579.164 547.548,577.562 548.35,576.184C547.548,574.805 547.09,573.203 547.09,571.495L547.09,562.118C547.09,560.41 547.548,558.808 548.35,557.429C547.548,556.05 547.09,554.448 547.09,552.74L547.09,543.363C547.09,541.655 547.548,540.053 548.35,538.674C547.548,537.295 547.09,535.693 547.09,533.986L547.09,524.608C547.09,522.9 547.548,521.298 548.35,519.919C547.548,518.54 547.09,516.938 547.09,515.23L547.09,505.853C547.09,504.145 547.548,502.543 548.35,501.165C547.548,499.786 547.09,498.184 547.09,496.476L547.09,487.098C547.09,485.39 547.548,483.789 548.35,482.41C547.548,481.031 547.09,479.429 547.09,477.721L547.09,468.344C547.09,466.636 547.548,465.034 548.35,463.655C547.548,462.276 547.09,460.674 547.09,458.966L547.09,449.589C547.09,447.881 547.548,446.279 548.35,444.901C547.548,443.522 547.09,441.92 547.09,440.212L547.09,430.835C547.09,429.127 547.548,427.525 548.35,426.146C547.548,424.767 547.09,423.165 547.09,421.457L547.09,412.08C547.09,410.372 547.548,408.77 548.35,407.391C547.548,406.012 547.09,404.41 547.09,402.702L547.09,393.325C547.09,391.617 547.548,390.015 548.35,388.636C547.548,387.257 547.09,385.655 547.09,383.947L547.09,374.57C547.09,372.862 547.548,371.26 548.349,369.881C547.548,368.503 547.09,366.901 547.09,365.193L547.09,355.816C547.09,354.108 547.548,352.506 548.35,351.127C547.548,349.748 547.09,348.146 547.09,346.438L547.09,337.061C547.09,335.353 547.548,333.751 548.35,332.373C547.548,330.994 547.09,329.392 547.09,327.684L547.09,318.307C547.09,316.599 547.548,314.997 548.35,313.618C547.548,312.239 547.09,310.637 547.09,308.929L547.09,299.552C547.09,297.844 547.548,296.242 548.35,294.863C547.548,293.484 547.09,291.882 547.09,290.174L547.09,280.797C547.09,279.089 547.548,277.487 548.35,276.109C547.548,274.73 547.09,273.128 547.09,271.42L547.09,262.042C547.09,260.335 547.548,258.733 548.35,257.354C547.548,255.975 547.09,254.373 547.09,252.665L547.09,243.288C547.09,241.58 547.548,239.978 548.35,238.599C547.548,237.22 547.09,235.618 547.09,233.91L547.09,224.533C547.09,222.825 547.548,221.223 548.35,219.844C547.548,218.466 547.09,216.864 547.09,215.156L547.09,205.779C547.09,204.071 547.548,202.469 548.35,201.09C547.548,199.711 547.09,198.109 547.09,196.401L547.09,187.024C547.09,185.316 547.548,183.714 548.35,182.335C547.548,180.956 547.09,179.354 547.09,177.647L547.09,168.269C547.09,166.561 547.548,164.959 548.35,163.581C547.548,162.202 547.09,160.6 547.09,158.892L547.09,149.515C547.09,147.807 547.548,146.205 548.35,144.826C547.548,143.447 547.09,141.845 547.09,140.137L547.09,138.593C545.491,138.594 543.981,138.192 542.66,137.48Z" style="fill:url(#_Linear3);"/>
                </g>
                <g id="Bottomshell">
                    <g transform="matrix(0.593604,0,0,0.539001,175.371,208.124)">
                        <path d="M556.468,129.12C313.561,129.12 116.645,326.036 116.645,568.943C116.645,811.85 313.561,1008.76 556.468,1008.76L556.468,780.057C439.872,780.057 345.353,685.538 345.353,568.943C345.353,452.347 439.872,357.828 556.468,357.828L556.468,129.12Z"/>
                        <path d="M556.468,129.12C313.561,129.12 116.645,326.036 116.645,568.943C116.645,811.85 313.561,1008.76 556.468,1008.76L556.468,780.057C439.872,780.057 345.353,685.538 345.353,568.943C345.353,452.347 439.872,357.828 556.468,357.828L556.468,129.12ZM520.481,171.999L520.481,319.164C400.152,337.073 309.367,443.433 309.367,568.943C309.367,694.452 400.152,800.812 520.481,818.722L520.481,965.886C315.34,947.993 152.632,778.588 152.632,568.943C152.632,359.297 315.34,189.892 520.481,171.999Z"/>
                    </g>
                    <g transform="matrix(0.598734,0,0,0.548272,173.461,202.849)">
                        <path d="M556.468,129.12C313.561,129.12 116.645,326.036 116.645,568.943C116.645,811.85 313.561,1008.76 556.468,1008.76L556.468,938.393C352.426,938.393 187.017,772.984 187.017,568.943C187.017,364.901 352.426,199.492 556.468,199.492L556.468,129.12Z" style="fill:rgb(111,111,111);fill-opacity:0.17;"/>
                    </g>
                </g>
                <g id="Topshel">
                    <g transform="matrix(1.06396,0,0,1.06396,-86.3682,-90.5487)">
                        <path d="M556.468,129.12C313.561,129.12 116.645,326.036 116.645,568.943C116.645,811.85 313.561,1008.76 556.468,1008.76L556.468,890.013C379.145,890.013 235.397,746.265 235.397,568.943C235.397,391.62 379.145,247.872 556.468,247.872L556.468,129.12Z"/>
                        <path d="M556.468,129.12C313.561,129.12 116.645,326.036 116.645,568.943C116.645,811.85 313.561,1008.76 556.468,1008.76L556.468,890.013C379.145,890.013 235.397,746.265 235.397,568.943C235.397,391.62 379.145,247.872 556.468,247.872L556.468,129.12ZM536.39,150.522L536.39,227.524C357.127,237.947 215.32,387.046 215.32,568.943C215.32,750.839 357.127,899.938 536.39,910.361L536.39,987.363C314.098,976.91 136.723,793.805 136.723,568.943C136.723,344.08 314.098,160.975 536.39,150.522Z"/>
                    </g>
                    <g transform="matrix(1.06304,0,0,1.06196,-86.2604,-89.8948)">
                        <g id="shade">
                            <path d="M556.468,129.12C313.561,129.12 116.645,326.036 116.645,568.943C116.645,811.85 313.561,1008.76 556.468,1008.76L556.468,969.181C335.422,969.181 156.229,789.988 156.229,568.943C156.229,347.897 335.422,168.704 556.468,168.704L556.468,129.12Z" style="fill:rgb(143,143,143);fill-opacity:0.18;"/>
                        </g>
                    </g>
                    <g id="white" transform="matrix(1.07173,0,0,1.07173,-88.4159,-93.4068)">
                        <path d="M556.468,129.12C313.561,129.12 116.645,326.036 116.645,568.943C116.645,811.85 313.561,1008.76 556.468,1008.76L556.468,129.12ZM538.197,148.556L538.197,989.329C314.043,979.783 134.917,795.432 134.917,568.943C134.917,342.453 314.043,158.102 538.197,148.556Z" style="fill:url(#_Linear4);"/>
                    </g>
                </g>
            </g>
            <g transform="matrix(1,0,0,1,-79.3737,-88.1405)">
                <g transform="matrix(-0.992067,-0.125711,0.125711,-0.992067,1040.71,2118.37)">
                    <text x="587.195px" y="1026.35px" style="font-family:'LucidaGrande', 'Lucida Grande', sans-serif;font-weight:500;font-size:51.684px;fill:white;">T</text>
                </g>
                <g transform="matrix(-0.97084,-0.239727,0.239727,-0.97084,822.995,2139.64)">
                    <text x="541.627px" y="1019.77px" style="font-family:'LucidaGrande', 'Lucida Grande', sans-serif;font-weight:500;font-size:51.684px;fill:white;">o</text>
                </g>
                <g transform="matrix(-0.939957,-0.341293,0.341293,-0.939957,622.558,2125.85)">
                    <text x="498.277px" y="1008.16px" style="font-family:'LucidaGrande', 'Lucida Grande', sans-serif;font-weight:500;font-size:51.684px;fill:white;">r</text>
                </g>
                <g transform="matrix(-0.876901,-0.480671,0.480671,-0.876901,362.219,2066.26)">
                    <text x="445.692px" y="986.749px" style="font-family:'LucidaGrande', 'Lucida Grande', sans-serif;font-weight:500;font-size:51.684px;fill:white;">E</text>
                </g>
                <g transform="matrix(-0.822268,-0.5691,0.5691,-0.822268,196.982,1994.73)">
                    <text x="409.972px" y="966.607px" style="font-family:'LucidaGrande', 'Lucida Grande', sans-serif;font-weight:500;font-size:51.684px;fill:white;">x</text>
                </g>
                <g transform="matrix(-0.766976,-0.641676,0.641676,-0.766976,57.345,1901.91)">
                    <text x="374.011px" y="940.543px" style="font-family:'LucidaGrande', 'Lucida Grande', sans-serif;font-weight:500;font-size:51.684px;fill:white;">i</text>
                </g>
                <g transform="matrix(-0.717565,-0.696491,0.696491,-0.717565,-35.7272,1831.15)">
                    <text x="353.412px" y="922.818px" style="font-family:'LucidaGrande', 'Lucida Grande', sans-serif;font-weight:500;font-size:51.684px;fill:white;">t</text>
                </g>
                <g transform="matrix(-0.594395,-0.804173,0.804173,-0.594395,-207.213,1661.01)">
                    <text x="315.28px" y="882.761px" style="font-family:'LucidaGrande', 'Lucida Grande', sans-serif;font-weight:500;font-size:51.684px;fill:white;">N</text>
                </g>
                <g transform="matrix(-0.491419,-0.870924,0.870924,-0.491419,-306.46,1502.28)">
                    <text x="285.403px" y="840.62px" style="font-family:'LucidaGrande', 'Lucida Grande', sans-serif;font-weight:500;font-size:51.684px;fill:white;">o</text>
                </g>
                <g transform="matrix(-0.390257,-0.920706,0.920706,-0.390257,-370.537,1356.73)">
                    <text x="263.983px" y="801.062px" style="font-family:'LucidaGrande', 'Lucida Grande', sans-serif;font-weight:500;font-size:51.684px;fill:white;">d</text>
                </g>
                <g transform="matrix(-0.282899,-0.95915,0.95915,-0.282899,-410.672,1209.97)">
                    <text x="246.975px" y="758.501px" style="font-family:'LucidaGrande', 'Lucida Grande', sans-serif;font-weight:500;font-size:51.684px;fill:white;">e</text>
                </g>
                <g transform="matrix(-0.10496,-0.994476,0.994476,-0.10496,-435.835,998.186)">
                    <text x="231.272px" y="695.221px" style="font-family:'LucidaGrande', 'Lucida Grande', sans-serif;font-weight:500;font-size:51.684px;fill:white;">O</text>
                </g>
                <g transform="matrix(0.0229535,-0.999737,0.999737,0.0229535,-419.936,853.47)">
                    <text x="226.677px" y="641.579px" style="font-family:'LucidaGrande', 'Lucida Grande', sans-serif;font-weight:500;font-size:51.684px;fill:white;">p</text>
                </g>
                <g transform="matrix(0.129031,-0.991641,0.991641,0.129031,-392.036,745.677)">
                    <text x="228.477px" y="596.014px" style="font-family:'LucidaGrande', 'Lucida Grande', sans-serif;font-weight:500;font-size:51.684px;fill:white;">e</text>
                </g>
                <g transform="matrix(0.230057,-0.973177,0.973177,0.230057,-359.142,655.423)">
                    <text x="234.643px" y="554.682px" style="font-family:'LucidaGrande', 'Lucida Grande', sans-serif;font-weight:500;font-size:51.684px;fill:white;">r</text>
                </g>
                <g transform="matrix(0.31908,-0.947728,0.947728,0.31908,-329.264,585.341)">
                    <text x="242.717px" y="521.811px" style="font-family:'LucidaGrande', 'Lucida Grande', sans-serif;font-weight:500;font-size:51.684px;fill:white;">a</text>
                </g>
                <g transform="matrix(0.404475,-0.914549,0.914549,0.404475,-288.847,522.292)">
                    <text x="256.618px" y="482.937px" style="font-family:'LucidaGrande', 'Lucida Grande', sans-serif;font-weight:500;font-size:51.684px;fill:white;">t</text>
                </g>
                <g transform="matrix(0.492242,-0.870459,0.870459,0.492242,-257.742,465.308)">
                    <text x="269.972px" y="453.58px" style="font-family:'LucidaGrande', 'Lucida Grande', sans-serif;font-weight:500;font-size:51.684px;fill:white;">o</text>
                </g>
                <g transform="matrix(0.580757,-0.814077,0.814077,0.580757,-215.175,412.324)">
                    <text x="292.734px" y="415.073px" style="font-family:'LucidaGrande', 'Lucida Grande', sans-serif;font-weight:500;font-size:51.684px;fill:white;">r</text>
                </g>
                <g transform="matrix(0.698094,-0.716007,0.716007,0.698094,-166.16,346.182)">
                    <text x="327.425px" y="370.124px" style="font-family:'LucidaGrande', 'Lucida Grande', sans-serif;font-weight:500;font-size:51.684px;fill:white;">0</text>
                </g>
                <g transform="matrix(0.776237,-0.630442,0.630442,0.776237,-132.299,302.615)">
                    <text x="360.152px" y="337.68px" style="font-family:'LucidaGrande', 'Lucida Grande', sans-serif;font-weight:500;font-size:51.684px;fill:white;">6</text>
                </g>
                <g transform="matrix(0.840321,-0.54209,0.54209,0.840321,-104.49,264.228)">
                    <text x="396.263px" y="309.479px" style="font-family:'LucidaGrande', 'Lucida Grande', sans-serif;font-weight:500;font-size:51.684px;fill:white;">/</text>
                </g>
                <g transform="matrix(0.89348,-0.449103,0.449103,0.89348,-83.5723,223.989)">
                    <text x="430.399px" y="288.171px" style="font-family:'LucidaGrande', 'Lucida Grande', sans-serif;font-weight:500;font-size:51.684px;fill:white;">2</text>
                </g>
                <g transform="matrix(0.940744,-0.339119,0.339119,0.940744,-62.9976,175.943)">
                    <text x="471.954px" y="268.236px" style="font-family:'LucidaGrande', 'Lucida Grande', sans-serif;font-weight:500;font-size:51.684px;fill:white;">0</text>
                </g>
                <g transform="matrix(0.97358,-0.228348,0.228348,0.97358,-44.2378,124.427)">
                    <text x="515.584px" y="253.384px" style="font-family:'LucidaGrande', 'Lucida Grande', sans-serif;font-weight:500;font-size:51.684px;fill:white;">2</text>
                </g>
                <g transform="matrix(0.993573,-0.113191,0.113191,0.993573,-23.9879,65.0118)">
                    <text x="560.515px" y="243.749px" style="font-family:'LucidaGrande', 'Lucida Grande', sans-serif;font-weight:500;font-size:51.684px;fill:white;">2</text>
                </g>
            </g>
        </g>
        <g transform="matrix(0.545803,-4.16334e-16,1.94289e-16,0.77415,225.472,43.7381)">
            <rect x="575.68" y="35.68" width="49.143" height="1008.64" style="fill:white;"/>
            <path d="M624.823,35.68L575.68,35.68L575.68,1044.32L624.823,1044.32L624.823,35.68ZM603.526,50.695L603.526,1029.31C603.526,1029.31 596.976,1029.31 596.976,1029.31C596.976,913.685 596.976,166.315 596.976,50.695L603.526,50.695Z" style="fill:white;"/>
        </g>
    </g>
    <defs>
        <linearGradient id="_Linear2" x1="0" y1="0" x2="1" y2="0" gradientUnits="userSpaceOnUse" gradientTransform="matrix(2e-06,0,0,2e-06,1198.68,491.502)"><stop offset="0" style="stop-color:white;stop-opacity:1"/><stop offset="1" style="stop-color:white;stop-opacity:0"/></linearGradient>
        <linearGradient id="_Linear3" x1="0" y1="0" x2="1" y2="0" gradientUnits="userSpaceOnUse" gradientTransform="matrix(2e-06,0,0,2e-06,1198.68,491.502)"><stop offset="0" style="stop-color:black;stop-opacity:1"/><stop offset="1" style="stop-color:black;stop-opacity:0"/></linearGradient>
        <linearGradient id="_Linear4" x1="0" y1="0" x2="1" y2="0" gradientUnits="userSpaceOnUse" gradientTransform="matrix(2e-06,0,0,2e-06,1198.68,491.502)"><stop offset="0" style="stop-color:black;stop-opacity:1"/><stop offset="1" style="stop-color:black;stop-opacity:0"/></linearGradient>
    </defs>
</svg>
